<?xml version="1.0" encoding="UTF-8"?><svg id="Layer_2" xmlns="http://www.w3.org/2000/svg" width="658.7235" height="254.209" viewBox="0 0 658.7235 254.209"><g id="Layer_1-2"><path d="M60.376,220.9307c0-15.4494.2426-36.0154.5368-48.0176h-.6481c-2.9215,20.7371-7.0648,54.3517-11.5428,79.8677h-18.4608c-3.4782-26.541-7.6141-60.0014-10.3438-80.1103h-.744c.4852,11.6844.9269,31.7814.9269,49.0087v31.1016H0v-99.4338h32.1619c3.2717,20.7563,6.5316,45.7126,8.0322,59.6534h.4579c1.9061-14.8079,5.6475-36.404,9.3853-59.6534h31.839v99.4338h-21.5003v-31.85Z" fill="#41378f"/><path d="M115.9554,231.4972l-3.3831,21.2835h-22.8497l19.617-99.4338h32.1088l19.8677,99.4338h-23.733l-3.4863-21.2835h-18.1416ZM131.0722,212.2806c-2.2571-14.507-4.4346-30.6909-5.6925-39.8321h-.7514c-.9711,9.535-3.3993,25.3177-5.7515,39.8321h12.1954Z" fill="#499a85"/><path d="M204.2593,224.6293c0,18.5803-3.8565,29.5797-25.8235,29.5797-4.5887,0-8.2777-.4417-10.5297-.8318v-17.9108c1.6709.1467,3.6212.3893,5.7626.3893,6.873,0,7.7925-2.8691,7.7925-9.0498v-73.4592h22.7981v71.2824Z" fill="#ec4029"/><path d="M236.9846,231.4972l-3.3831,21.2835h-22.8497l19.617-99.4338h32.1088l19.8677,99.4338h-23.733l-3.4863-21.2835h-18.1416ZM252.1014,212.2806c-2.2571-14.507-4.4346-30.6909-5.6925-39.8321h-.7514c-.9711,9.535-3.3993,25.3177-5.7515,39.8321h12.1954Z" fill="#f59f40"/><path d="M375.9068,220.9307c0-15.4494.2426-36.0154.5368-48.0176h-.6481c-2.9215,20.7371-7.0648,54.3517-11.5428,79.8677h-18.4608c-3.4782-26.541-7.6141-60.0014-10.3438-80.1103h-.744c.4852,11.6844.9269,31.7814.9269,49.0087v31.1016h-20.1v-99.4338h32.1619c3.2717,20.7563,6.5316,45.7126,8.0322,59.6534h.4579c1.9061-14.8079,5.6475-36.404,9.3853-59.6534h31.839v99.4338h-21.5003v-31.85Z" fill="#41378f"/><path d="M431.4855,231.4972l-3.3831,21.2835h-22.8497l19.617-99.4338h32.1088l19.8677,99.4338h-23.733l-3.4863-21.2835h-18.1416ZM446.6023,212.2806c-2.2571-14.507-4.4346-30.6909-5.6925-39.8321h-.7514c-.9711,9.535-3.3993,25.3177-5.7515,39.8321h12.1954Z" fill="#499a85"/><path d="M505.9858,231.4972l-3.3831,21.2835h-22.8497l19.617-99.4338h32.1088l19.8677,99.4338h-23.733l-3.4863-21.2835h-18.1416ZM521.1027,212.2806c-2.2571-14.507-4.4346-30.6909-5.6925-39.8321h-.7514c-.9711,9.535-3.3993,25.3177-5.7515,39.8321h12.1954Z" fill="#499a85"/><path d="M558.8686,153.3469h28.4021c25.9511,0,36.5412,14.7334,36.5412,47.8031,0,35.2264-10.4508,51.6308-37.3493,51.6308h-27.5939v-99.4338ZM581.8142,235.4223h4.2428c10.6307,0,13.7476-7.5028,13.7476-34.6343,0-22.7066-2.802-29.8916-13.6001-29.8916h-4.3903v64.5259Z" fill="#ec4029"/><path d="M658.7235,153.3469v99.4338h-22.8497v-99.4338h22.8497Z" fill="#f59f40"/><path d="M56.0458,78.1503l-3.3831,21.2835h-22.8497L49.4301,0h32.1088l19.8677,99.4338h-23.733l-3.4863-21.2835h-18.1416ZM71.1626,58.9337c-2.2571-14.507-4.4346-30.6909-5.6925-39.8321h-.7514c-.9711,9.535-3.3993,25.3177-5.7515,39.8321h12.1954Z" fill="#ec4029"/><path d="M134.9408,78.1503l-3.3831,21.2835h-22.8497L128.3251,0h32.1088l19.8677,99.4338h-23.733l-3.4863-21.2835h-18.1416ZM150.0577,58.9337c-2.2571-14.507-4.4346-30.6909-5.6925-39.8321h-.7514c-.9711,9.535-3.3993,25.3177-5.7515,39.8321h12.1954Z" fill="#f59f40"/><path d="M194.2661,18.6916h-19.6082V0h61.9105v18.6916h-19.5042v80.7422h-22.7981V18.6916Z" fill="#41378f"/><path d="M255.97,78.1503l-3.3831,21.2835h-22.8497L249.3543,0h32.1088l19.8677,99.4338h-23.733l-3.4863-21.2835h-18.1416ZM271.0869,58.9337c-2.2571-14.507-4.4346-30.6909-5.6925-39.8321h-.7514c-.9711,9.535-3.3993,25.3177-5.7515,39.8321h12.1954Z" fill="#499a85"/><path d="M369.7863,78.1503l-3.3831,21.2835h-22.8497L363.1706,0h32.1088l19.8677,99.4338h-23.733l-3.4863-21.2835h-18.1416ZM384.9031,58.9337c-2.2571-14.507-4.4346-30.6909-5.6925-39.8321h-.7514c-.9711,9.535-3.3993,25.3177-5.7515,39.8321h12.1954Z" fill="#ec4029"/><path d="M449.0414,78.1503l-3.3831,21.2835h-22.8497L442.4257,0h32.1088l19.8677,99.4338h-23.733l-3.4863-21.2835h-18.1416ZM464.1582,58.9337c-2.2571-14.507-4.4346-30.6909-5.6925-39.8321h-.7514c-.9711,9.535-3.3993,25.3177-5.7515,39.8321h12.1954Z" fill="#f59f40"/><path d="M502.0637,0h28.4021c25.9511,0,36.5412,14.7334,36.5412,47.8031,0,35.2264-10.4508,51.6308-37.3493,51.6308h-27.5939V0ZM525.0093,82.0753h4.2428c10.6307,0,13.7476-7.5028,13.7476-34.6343,0-22.7066-2.802-29.8916-13.6001-29.8916h-4.3903v64.5259Z" fill="#41378f"/><path d="M601.2487,0v99.4338h-22.8497V0h22.8497Z" fill="#499a85"/></g></svg>